<svg width="35" height="35" viewBox="0 0 35 35" fill="none" xmlns="http://www.w3.org/2000/svg">
<path fill-rule="evenodd" clip-rule="evenodd" d="M15.6878 4.02131C17.3288 2.38037 19.5544 1.4585 21.875 1.4585H26.25C27.0554 1.4585 27.7083 2.11141 27.7083 2.91683V8.75016C27.7083 9.55558 27.0554 10.2085 26.25 10.2085H21.875V13.1252H26.25C26.6991 13.1252 27.1231 13.3321 27.3995 13.686C27.6758 14.04 27.7737 14.5015 27.6648 14.9372L26.2065 20.7705C26.0442 21.4197 25.4609 21.8752 24.7917 21.8752H21.875V32.0835C21.875 32.8889 21.2221 33.5418 20.4167 33.5418H14.5833C13.7779 33.5418 13.125 32.8889 13.125 32.0835V21.8752H10.2083C9.40292 21.8752 8.75 21.2222 8.75 20.4168V14.5835C8.75 13.7781 9.40292 13.1252 10.2083 13.1252H13.125V10.2085C13.125 7.88785 14.0469 5.66225 15.6878 4.02131ZM21.875 4.37516C20.3279 4.37516 18.8442 4.98974 17.7502 6.08371C16.6562 7.17767 16.0417 8.6614 16.0417 10.2085V14.5835C16.0417 15.3889 15.3887 16.0418 14.5833 16.0418H11.6667V18.9585H14.5833C15.3887 18.9585 16.0417 19.6114 16.0417 20.4168V30.6252H18.9583V20.4168C18.9583 19.6114 19.6113 18.9585 20.4167 18.9585H23.653L24.3822 16.0418H20.4167C19.6113 16.0418 18.9583 15.3889 18.9583 14.5835V10.2085C18.9583 9.43495 19.2656 8.69308 19.8126 8.1461C20.3596 7.59912 21.1015 7.29183 21.875 7.29183H24.7917V4.37516H21.875Z" fill="white"/>
</svg>
