<svg width="35" height="35" viewBox="0 0 35 35" fill="none" xmlns="http://www.w3.org/2000/svg">
<path fill-rule="evenodd" clip-rule="evenodd" d="M10.2083 4.37516C6.98659 4.37516 4.37492 6.98683 4.37492 10.2085V24.7918C4.37492 28.0135 6.98659 30.6252 10.2083 30.6252H24.7916C28.0132 30.6252 30.6249 28.0135 30.6249 24.7918V10.2085C30.6249 6.98683 28.0132 4.37516 24.7916 4.37516H10.2083ZM1.45825 10.2085C1.45825 5.376 5.37576 1.4585 10.2083 1.4585H24.7916C29.6241 1.4585 33.5416 5.376 33.5416 10.2085V24.7918C33.5416 29.6243 29.6241 33.5418 24.7916 33.5418H10.2083C5.37576 33.5418 1.45825 29.6243 1.45825 24.7918V10.2085Z" fill="white"/>
<path fill-rule="evenodd" clip-rule="evenodd" d="M18.2049 13.109C17.2946 12.974 16.365 13.1295 15.5482 13.5533C14.7314 13.9772 14.069 14.6478 13.6553 15.4697C13.2415 16.2917 13.0975 17.2232 13.2437 18.1318C13.3899 19.0403 13.8189 19.8796 14.4696 20.5303C15.1203 21.181 15.9596 21.6099 16.8681 21.7561C17.7766 21.9023 18.7081 21.7583 19.5301 21.3446C20.3521 20.9309 21.0227 20.2685 21.4465 19.4517C21.8703 18.6349 22.0258 17.7052 21.8908 16.795C21.7532 15.8664 21.3205 15.0068 20.6568 14.3431C19.993 13.6794 19.1334 13.2467 18.2049 13.109ZM14.2048 10.9644C15.5662 10.2581 17.1156 9.99893 18.6327 10.2239C20.1802 10.4534 21.6129 11.1745 22.7191 12.2807C23.8254 13.3869 24.5465 14.8196 24.776 16.3671C25.0009 17.8842 24.7418 19.4337 24.0354 20.795C23.329 22.1564 22.2114 23.2603 20.8414 23.9499C19.4715 24.6394 17.919 24.8794 16.4047 24.6358C14.8905 24.3921 13.4917 23.6772 12.4072 22.5927C11.3227 21.5082 10.6078 20.1093 10.3641 18.5951C10.1204 17.0809 10.3604 15.5284 11.05 14.1584C11.7395 12.7885 12.8435 11.6708 14.2048 10.9644Z" fill="white"/>
<path fill-rule="evenodd" clip-rule="evenodd" d="M24.0625 9.47933C24.0625 8.67391 24.7154 8.021 25.5208 8.021H25.5354C26.3408 8.021 26.9937 8.67391 26.9937 9.47933C26.9937 10.2847 26.3408 10.9377 25.5354 10.9377H25.5208C24.7154 10.9377 24.0625 10.2847 24.0625 9.47933Z" fill="white"/>
</svg>
