<?xml version="1.0" encoding="UTF-8"?>
<svg id="Layer_1" xmlns="http://www.w3.org/2000/svg" version="1.1" xmlns:xlink="http://www.w3.org/1999/xlink" viewBox="0 0 260.85 171.59">
  <!-- Generator: Adobe Illustrator 29.8.4, SVG Export Plug-In . SVG Version: 2.1.1 Build 6)  -->
  <defs>
    <style>
      .st0 {
        fill: url(#linear-gradient2);
      }

      .st1 {
        fill: url(#linear-gradient1);
      }

      .st2 {
        fill: none;
      }

      .st3 {
        fill: url(#linear-gradient4);
      }

      .st4 {
        fill: url(#linear-gradient3);
      }

      .st5 {
        fill: url(#linear-gradient);
      }

      .st6 {
        clip-path: url(#clippath);
      }
    </style>
    <linearGradient id="linear-gradient" x1="95.23" y1="69.61" x2="213.42" y2="179.7" gradientTransform="translate(0 174) scale(1 -1)" gradientUnits="userSpaceOnUse">
      <stop offset="0" stop-color="#bf96c5"/>
      <stop offset=".49" stop-color="#75c1ec"/>
    </linearGradient>
    <clipPath id="clippath">
      <path class="st2" d="M143.71,56.49l.02,48.09c5.63,4.8,12.61,10.06,22.37,14.01,11.51,4.65,33.07,5.12,49.22-2.15,16.27-7.32,28.7-12.92,45.53-14.99v26.35c-9.02,1.5-16.94,4.52-27.82,9.3l15.92,15.92-18.45,18.45-24.99-24.99c-6.11,1.12-12.4,1.68-18.58,1.68-11,0-21.69-1.78-30.61-5.39-5.16-2.09-9.75-4.45-13.82-6.9-1.92,8.17-6.05,15.7-12.07,21.86-8.69,8.88-20.22,13.77-32.47,13.77H20.09v-106.3H0v-26.09h20.09v-13.01H0V.02l32.79-.02c7.39,0,13.38,5.98,13.38,13.37v132.05h51.78c10.67,0,19.69-9.26,19.69-20.22V56.97c-.44-6.46.78-16.64,6.15-26.14l-12.16-12.16L130.08.23l12.59,12.59c13.65-7.89,28.77-12,46.04-12.53,15.35-.46,29.36,1.92,43.54,4.62,8.43,1.61,18.78.88,28.6-.77v26.37c-11.01,1.55-22.86,2.06-33.48.03-21.21-4.04-50.25-9.57-75.36,7.17-8.64,5.76-8.24,15.79-8.28,17.46l-.02,1.32ZM185.28,156.73l-5.54-5.54-4.66,4.67-4.67-4.67-5.54,5.54,4.67,4.67-4.67,4.66,5.54,5.54,4.67-4.66,4.66,4.66,5.54-5.54-4.66-4.66,4.66-4.67Z"/>
    </clipPath>
    <linearGradient id="linear-gradient1" x1="-185.64" y1="469" x2="-169.56" y2="452.89" gradientTransform="translate(-70.13 222.47) rotate(24.22) scale(.78 -.58) skewX(33.56)" gradientUnits="userSpaceOnUse">
      <stop offset=".3" stop-color="#231f20" stop-opacity="0"/>
      <stop offset=".89" stop-color="#231f20" stop-opacity=".3"/>
    </linearGradient>
    <linearGradient id="linear-gradient2" x1="-172.85" y1="-658.12" x2="-139.69" y2="-691.32" gradientTransform="translate(548.93 605.38) rotate(135) scale(1 -1)" gradientUnits="userSpaceOnUse">
      <stop offset=".36" stop-color="#231f20" stop-opacity="0"/>
      <stop offset="1" stop-color="#231f20" stop-opacity=".3"/>
    </linearGradient>
    <linearGradient id="linear-gradient3" x1="-302.29" y1="-706.05" x2="-269.12" y2="-739.26" gradientTransform="translate(473.89 839.45) rotate(135) scale(1 -1)" gradientUnits="userSpaceOnUse">
      <stop offset=".4" stop-color="#231f20" stop-opacity="0"/>
      <stop offset="1" stop-color="#231f20" stop-opacity=".3"/>
    </linearGradient>
    <linearGradient id="linear-gradient4" x1="9.39" y1="88.42" x2="127.87" y2="87.25" gradientTransform="translate(0 174) scale(1 -1)" gradientUnits="userSpaceOnUse">
      <stop offset="0" stop-color="#db6e80"/>
      <stop offset="1" stop-color="#bf96c5"/>
    </linearGradient>
  </defs>
  <path class="st5" d="M143.71,56.49l.02,48.09c5.63,4.8,12.61,10.06,22.37,14.01,11.51,4.65,33.07,5.12,49.22-2.15,16.27-7.32,28.7-12.92,45.53-14.99v26.35c-9.02,1.5-16.94,4.52-27.82,9.3l15.92,15.92-18.45,18.45-24.99-24.99c-6.11,1.12-12.4,1.68-18.58,1.68-11,0-21.69-1.78-30.61-5.39-5.16-2.09-9.75-4.45-13.82-6.9-1.92,8.17-6.05,15.7-12.07,21.86-8.69,8.88-20.22,13.77-32.47,13.77H20.09v-106.3H0v-26.09h20.09v-13.01H0V.02l32.79-.02c7.39,0,13.38,5.98,13.38,13.37v132.05h51.78c10.67,0,19.69-9.26,19.69-20.22V56.97c-.44-6.46.78-16.64,6.15-26.14l-12.16-12.16L130.08.23l12.59,12.59c13.65-7.89,28.77-12,46.04-12.53,15.35-.46,29.36,1.92,43.54,4.62,8.43,1.61,18.78.88,28.6-.77v26.37c-11.01,1.55-22.86,2.06-33.48.03-21.21-4.04-50.25-9.57-75.36,7.17-8.64,5.76-8.24,15.79-8.28,17.46,0,0-.02,1.32-.02,1.32ZM185.28,156.73l-5.54-5.54-4.66,4.67-4.67-4.67-5.54,5.54,4.67,4.67-4.67,4.66,5.54,5.54,4.67-4.66,4.66,4.66,5.54-5.54-4.66-4.66,4.66-4.67Z"/>
  <g class="st6">
    <g>
      <rect class="st1" x="110.64" y="17.1" width="40.2" height="8.77" transform="translate(23.1 98.74) rotate(-45)"/>
      <rect class="st0" x="154.04" y="-2.32" width="40.2" height="40.2"/>
      <rect class="st4" x="136.63" y="101.67" width="40.2" height="49.52"/>
    </g>
  </g>
  <path class="st3" d="M142.49,135.87c-1.92,8.17-6.05,15.7-12.07,21.86-8.69,8.88-20.22,13.77-32.47,13.77H20.09v-106.3H0v-26.09h20.09v-13.01H0V.02l32.79-.02c7.39,0,13.38,5.98,13.38,13.37v132.05h51.78c10.67,0,19.69-9.26,19.69-20.22V56.97c-.44-6.46.78-16.64,6.15-26.14,0,0,3.04-5.05,9.05-10.52s9.83-7.49,9.83-7.49c5.75-3.33,11.77-5.98,18.09-7.98v27.96c-2.96,1.37-5.88,2.99-8.75,4.91-8.64,5.76-8.24,15.79-8.28,17.46l-.02,1.32.02,48.09"/>
</svg>