<?xml version="1.0" encoding="utf-8"?>
<!-- Generator: Adobe Illustrator 26.0.3, SVG Export Plug-In . SVG Version: 6.00 Build 0)  -->
<svg version="1.1" xmlns="http://www.w3.org/2000/svg" xmlns:xlink="http://www.w3.org/1999/xlink" x="0px" y="0px"
	 viewBox="0 0 100 100" style="enable-background:new 0 0 100 100;" xml:space="preserve">
<style type="text/css">
	.st0{fill:#49334F;}
</style>
<g id="Layer_1">
	<g>
		<path class="st0" d="M50,0.2L50,0.2C31.9,0.2,17.1,15,17.1,33.1v33.7C17.1,85,31.9,99.8,50,99.8h0c18.2,0,32.9-14.7,32.9-32.9
			V33.1C82.9,15,68.2,0.2,50,0.2z M80.9,33.1v14.5H59.7V21.5c0-5-3.8-9.1-8.6-9.6V2.3C67.6,2.8,80.9,16.4,80.9,33.1z M50,13.9
			c4.2,0,7.6,3.4,7.6,7.6v26.1H42.4V21.5C42.4,17.3,45.8,13.9,50,13.9z M49,2.3v9.7c-4.8,0.5-8.6,4.6-8.6,9.6v26.1H19.1V33.1
			C19.1,16.4,32.4,2.8,49,2.3z M50,97.8c-17,0-30.9-13.9-30.9-30.9V49.7h21.3h19.3h21.3v17.2C80.9,83.9,67.1,97.8,50,97.8z"/>
	</g>
</g>
<g id="Layer_2">
</g>
</svg>
