<svg width="35" height="35" viewBox="0 0 35 35" fill="none" xmlns="http://www.w3.org/2000/svg">
<g clip-path="url(#clip0_33_777)">
<path fill-rule="evenodd" clip-rule="evenodd" d="M21.1829 3.42722C22.7124 2.84344 24.3843 2.74348 25.9725 3.14086C27.2354 3.45686 28.397 4.07525 29.36 4.93647C30.5444 4.50112 31.6678 3.91194 32.701 3.18316L33.5416 4.37485L34.9585 4.71992C34.459 6.7711 33.4577 8.66172 32.0495 10.2242C32.0712 10.4596 32.0825 10.6959 32.0832 10.9325L32.0832 10.9374C32.0832 19.8331 27.8003 26.3593 21.6486 29.6335C15.5325 32.8889 7.71576 32.8529 0.75001 28.983C0.159661 28.655 -0.128281 27.9646 0.0540816 27.3144C0.236444 26.6641 0.841399 26.2242 1.5162 26.251C3.97614 26.3489 6.41128 25.8597 8.62556 24.8396C6.43347 23.4869 4.85531 21.881 3.75811 20.1486C2.29448 17.8376 1.74196 15.3895 1.64204 13.1911C1.5424 10.999 1.8906 9.02533 2.25665 7.60997C2.44054 6.8989 2.63135 6.31954 2.77844 5.91271C2.85206 5.70906 2.91498 5.54796 2.96097 5.43445C2.98396 5.37768 3.00275 5.33275 3.01655 5.3003L3.03343 5.26103L3.03773 5.25118C3.04801 5.22759 3.05894 5.20419 3.07053 5.181L4.37491 5.83319L5.56834 4.99507C6.90351 6.89627 8.68813 8.43775 10.7633 9.48225C12.4139 10.3131 14.2076 10.8089 16.0412 10.9467C16.0304 9.32845 16.5112 7.74456 17.4206 6.40494C18.3401 5.05043 19.6534 4.011 21.1829 3.42722ZM4.96502 8.81345C4.69713 9.98211 4.48322 11.4642 4.55569 13.0586C4.63806 14.8706 5.08814 16.7975 6.22217 18.5881C7.35032 20.3694 9.2108 22.1042 12.2589 23.4589C12.7427 23.6739 13.072 24.1344 13.1191 24.6618C13.1662 25.1892 12.9237 25.7007 12.4856 25.9981C10.8655 27.0979 9.09145 27.9252 7.23339 28.4602C11.8565 29.6381 16.4893 29.0756 20.2783 27.0589C25.4281 24.3178 29.1658 18.8136 29.1666 10.9398C29.1654 10.6246 29.135 10.3103 29.0758 10.0007C28.9844 9.52261 29.1376 9.0304 29.4842 8.68859C29.8091 8.36822 30.11 8.02676 30.3853 7.66704C30.055 7.78889 29.7207 7.90078 29.3829 8.0025C28.8336 8.16789 28.2384 7.99594 27.862 7.56312C27.1798 6.77866 26.2731 6.22265 25.2645 5.9703C24.256 5.71795 23.1943 5.78142 22.223 6.15215C21.2517 6.52287 20.4177 7.18295 19.8338 8.04311C19.2498 8.90327 18.9442 9.92201 18.9581 10.9616L18.9584 10.9811H18.9582V12.4394C18.9582 13.2301 18.3281 13.8768 17.5377 13.8973C14.7345 13.97 11.9568 13.3483 9.45197 12.0875C7.78135 11.2466 6.26672 10.1389 4.96502 8.81345Z" fill="white"/>
</g>
<defs>
<clipPath id="clip0_33_777">
<rect width="35" height="35" fill="white"/>
</clipPath>
</defs>
</svg>
